<?xml version="1.0" encoding="utf-8"?>
<!-- Generator: Adobe Illustrator 21.0.2, SVG Export Plug-In . SVG Version: 6.00 Build 0)  -->
<svg version="1.1" id="Layer_1" xmlns="http://www.w3.org/2000/svg" xmlns:xlink="http://www.w3.org/1999/xlink" x="0px" y="0px"
	 viewBox="0 0 640 480" style="enable-background:new 0 0 640 480;" xml:space="preserve">
<style type="text/css">
	.st0{fill:#F26524;}
	.st1{fill:#009DB9;}
	.st2{fill:#808080;}
    
    <defs>
    
        <style>
            @keyframes fill {
              0% {
                  fill: #F26524;
              }
              50% {
                  fill: #808080;
              }
              100% {
                  fill: #009DB9;
              }
          }

          .st0 {
              fill: #009DB9;
              animation-name: fill;
              animation-duration: 3s;
              animation-iteration-count: infinite;
          }
            
        
        </style>
    
    </defs>
</style>
<g>
	<path class="st0" d="M56.5-457.9h10l30.1,63.6H86.4l-4.1-9.1h-19c-2.8,0-5.4,0.2-7.6,0.6c-2.2,0.4-4.1,0.9-5.7,1.5
		c-1.6,0.6-2.8,1.3-3.8,2c-1,0.7-1.6,1.4-1.9,2.1l-1.6,2.9h-9.9l27-55.9L56.5-457.9z M78.2-412.7L64.5-439l-13.8,29.9
		c1.1-0.9,3-1.8,5.5-2.5c2.6-0.7,6-1,10.4-1H78.2z"/>
</g>
<g>
	<path class="st1" d="M110.1-457.9h10l30.1,63.6H140l-4.1-9.1h-19c-2.8,0-5.4,0.2-7.6,0.6c-2.2,0.4-4.1,0.9-5.7,1.5
		c-1.6,0.6-2.8,1.3-3.8,2c-1,0.7-1.6,1.4-1.9,2.1l-1.6,2.9h-9.9l27-55.9L110.1-457.9z M131.8-412.7L118.1-439l-13.8,29.9
		c1.1-0.9,3-1.8,5.5-2.5c2.6-0.7,6-1,10.4-1H131.8z"/>
</g>
<g>
	<path class="st0" d="M230.8-457.9h10l30.1,63.6h-10.2l-4.1-9.1h-19c-2.8,0-5.4,0.2-7.6,0.6c-2.2,0.4-4.1,0.9-5.7,1.5
		c-1.6,0.6-2.8,1.3-3.8,2c-1,0.7-1.6,1.4-1.9,2.1l-1.6,2.9h-9.9l27-55.9L230.8-457.9z M252.5-412.7L238.8-439L225-409.1
		c1.1-0.9,3-1.8,5.5-2.5c2.6-0.7,6-1,10.4-1H252.5z"/>
</g>
<g>
	<path class="st1" d="M284.5-394.3h-10l-30.1-63.6h10.2l4.1,9.1h19c2.8,0,5.4-0.2,7.6-0.6c2.2-0.4,4.1-0.9,5.7-1.5
		c1.6-0.6,2.8-1.3,3.8-2c1-0.7,1.6-1.4,1.9-2.1l1.6-2.9h9.9L281-402L284.5-394.3z M262.8-439.5l13.7,26.4l13.8-29.9
		c-1.1,0.9-3,1.8-5.5,2.5c-2.6,0.7-6,1-10.4,1H262.8z"/>
</g>
<g>
	<path class="st0" d="M373.6-455.9h10l30.1,63.6h-10.2l-4.1-9.1h-19c-2.8,0-5.4,0.2-7.6,0.6c-2.2,0.4-4.1,0.9-5.7,1.5
		c-1.6,0.6-2.8,1.3-3.8,2c-1,0.7-1.6,1.4-1.9,2.1l-1.6,2.9H350l27-55.9L373.6-455.9z M395.3-410.7L381.7-437l-13.8,29.9
		c1.1-0.9,3-1.8,5.5-2.5c2.6-0.7,6-1,10.4-1H395.3z"/>
</g>
<g>
	<path class="st1" d="M426.1-392.3h-10L386-455.9h10.2l4.1,9.1h19c2.8,0,5.4-0.2,7.6-0.6c2.2-0.4,4.1-0.9,5.7-1.5
		c1.6-0.6,2.8-1.3,3.8-2c1-0.7,1.6-1.4,1.9-2.1l1.6-2.9h9.9l-27,55.9L426.1-392.3z M404.4-437.5l13.7,26.4l13.8-29.9
		c-1.1,0.9-3,1.8-5.5,2.5c-2.6,0.7-6,1-10.4,1H404.4z"/>
</g>
<text transform="matrix(1 0 0 1 367.8653 -301.0523)"><tspan x="0" y="0" class="st0" style="font-family:'ADAM.CGPRO'; font-size:15px; letter-spacing:6;">April</tspan><tspan x="70.2" y="0" class="st1" style="font-family:'ADAM.CGPRO'; font-size:15px; letter-spacing:5;"> </tspan><tspan x="0" y="18" class="st1" style="font-family:'ADAM.CGPRO'; font-size:15px; letter-spacing:6;">Alayon</tspan></text>
<g>
	<g>
		<path class="st1" d="M892.1-446.9l4,5.3l-21.3,41.2l-4.1-5.4l3.1-5.8l-7.6-10c-1.1-1.5-2.3-2.7-3.3-3.7c-1.1-1-2.1-1.8-3.1-2.4
			c-0.9-0.6-1.8-1-2.6-1.2c-0.8-0.2-1.4-0.3-1.9-0.2l-2.2,0.3l-4-5.2l40.1-8.2L892.1-446.9z M877-417.4l8.4-17.7l-21.2,4.7
			c0.9,0.2,2.1,0.8,3.5,1.9c1.4,1.1,3,2.7,4.7,5L877-417.4z"/>
	</g>
	<g>
		<path class="st0" d="M832.3-387.5l-4-5.3l21.3-41.2l4.1,5.4l-3.1,5.8l7.6,10c1.1,1.5,2.3,2.7,3.3,3.7c1.1,1,2.1,1.8,3.1,2.4
			c0.9,0.6,1.8,1,2.6,1.2c0.8,0.2,1.4,0.3,1.9,0.2l2.2-0.3l4,5.2l-40.1,8.2L832.3-387.5z M847.3-417l-8.4,17.7l21.2-4.7
			c-0.9-0.2-2.1-0.8-3.5-1.9c-1.4-1.1-3-2.7-4.7-5L847.3-417z"/>
	</g>
</g>
<g>
	<path class="st2" d="M919.4-403.5h-8l-1.9,4.8h-3.9l9.8-23.6l9.8,23.6h-3.9L919.4-403.5z M918.1-406.6l-2.7-6.9l-2.7,6.9H918.1z"/>
	<path class="st2" d="M943.5-421.2h3.7c3,0,4.7,1.2,5.6,2.2c1.2,1.3,1.8,3.1,1.8,5.2c0,2.1-0.6,3.9-1.8,5.2c-0.9,1-2.6,2.3-5.6,2.3
		H944v7.6h-3.5v-22.6H943.5z M951.5-413.7c0-0.9-0.2-2.2-1-3.1c-0.7-0.8-1.8-1.2-3.3-1.2H944v8.6h3.2c1.5,0,2.6-0.4,3.3-1.2
		C951.3-411.6,951.5-412.8,951.5-413.7z"/>
	<path class="st2" d="M985.5-398.6h-4l-5.7-7.6h-2.6v7.6h-3.5v-22.6h3h3.7c3,0,4.7,1.2,5.6,2.2c1.2,1.3,1.8,3.1,1.8,5.2
		c0,2.1-0.6,3.9-1.8,5.2c-0.5,0.6-1.4,1.3-2.6,1.7L985.5-398.6z M976.4-409.4c1.5,0,2.6-0.4,3.3-1.2c0.9-0.9,1-2.2,1-3.1
		c0-0.9-0.2-2.2-1-3.1c-0.7-0.8-1.8-1.2-3.3-1.2h-3.2v8.6H976.4z"/>
	<path class="st2" d="M1000.4-398.6v-22.6h3.5v22.6H1000.4z"/>
	<path class="st2" d="M1033.7-398.6h-9.5h-3.5v-22.6h3.5v19.4h9.4V-398.6z"/>
	<path class="st2" d="M1082-403.5h-8l-1.9,4.8h-3.9l9.8-23.6l9.8,23.6h-3.9L1082-403.5z M1080.7-406.6l-2.7-6.9l-2.7,6.9H1080.7z"/>
	<path class="st2" d="M1116-398.6h-9.5h-3.5v-22.6h3.5v19.4h9.4V-398.6z"/>
	<path class="st2" d="M1143.7-403.5h-8l-1.9,4.8h-3.9l9.8-23.6l9.8,23.6h-3.9L1143.7-403.5z M1142.4-406.6l-2.7-6.9l-2.7,6.9H1142.4
		z"/>
	<path class="st2" d="M1170.4-410.4v11.8h-3.5v-11.8l-7.9-10.8h3.8l5.9,8l5.9-8h3.8L1170.4-410.4z"/>
	<path class="st2" d="M1196.5-399.5c-1.4-0.6-2.6-1.4-3.6-2.4c-1-1-1.9-2.2-2.4-3.6c-0.6-1.4-0.9-2.9-0.9-4.4c0-1.5,0.3-3,0.9-4.4
		c0.6-1.3,1.4-2.5,2.4-3.6c1-1,2.2-1.8,3.6-2.4c1.4-0.6,2.9-0.9,4.4-0.9c1.5,0,3,0.3,4.4,0.9c1.3,0.6,2.5,1.4,3.6,2.4
		c1,1.1,1.8,2.3,2.4,3.6c0.6,1.4,0.9,2.9,0.9,4.4c0,1.5-0.3,3-0.9,4.4c-0.6,1.4-1.4,2.6-2.4,3.6c-1.1,1-2.2,1.9-3.6,2.4
		c-1.4,0.6-2.9,0.9-4.4,0.9C1199.3-398.6,1197.8-398.9,1196.5-399.5z M1195.4-415.4c-1.5,1.5-2.3,3.4-2.3,5.5s0.8,4,2.3,5.5
		c1.5,1.5,3.4,2.3,5.5,2.3c2.1,0,4-0.8,5.5-2.3c1.5-1.5,2.3-3.4,2.3-5.5s-0.8-4-2.3-5.5c-1.5-1.5-3.4-2.3-5.5-2.3
		C1198.8-417.7,1196.8-416.8,1195.4-415.4z"/>
	<path class="st2" d="M1231.8-413.1v14.5h-3.5v-23.6l14.2,15.5v-14.5h3.6v23.6L1231.8-413.1z"/>
</g>
<g>
	<g>
		<path class="st1" d="M328.6-336.9l6.6,0.3l18.2,42.7l-6.7-0.3l-2.5-6.1l-12.5-0.5c-1.9-0.1-3.5,0-5,0.2c-1.5,0.2-2.7,0.5-3.8,0.8
			c-1,0.4-1.9,0.8-2.5,1.2c-0.6,0.5-1.1,0.9-1.3,1.3l-1.1,1.9l-6.5-0.3l19.3-36.1L328.6-336.9z M341.7-306.5l-8.3-17.7l-9.9,19.4
			c0.8-0.6,2-1.1,3.7-1.5c1.7-0.4,4-0.5,6.9-0.4L341.7-306.5z"/>
	</g>
	<g>
		<path class="st0" d="M336.3-252.9l-6.6-0.3l-18.2-42.7l6.7,0.3l2.5,6.1l12.5,0.5c1.9,0.1,3.5,0,5-0.2c1.5-0.2,2.7-0.5,3.8-0.8
			c1-0.4,1.9-0.8,2.5-1.2c0.6-0.5,1.1-0.9,1.3-1.3l1.1-1.9l6.5,0.3l-19.3,36.1L336.3-252.9z M323.2-283.3l8.3,17.7l9.9-19.4
			c-0.8,0.6-2,1.1-3.7,1.5c-1.7,0.4-4,0.5-6.9,0.4L323.2-283.3z"/>
	</g>
</g>
<g>
	<path class="st0" d="M86.3-135.8h-10l-30.1-63.6h10.2l4.1,9.1h19c2.8,0,5.4-0.2,7.6-0.6c2.2-0.4,4.1-0.9,5.7-1.5
		c1.6-0.6,2.8-1.3,3.8-2c1-0.7,1.6-1.4,1.9-2.1l1.6-2.9h9.9l-27,55.9L86.3-135.8z M64.6-181l13.7,26.4L92-184.5
		c-1.1,0.9-3,1.8-5.5,2.5c-2.6,0.7-6,1-10.4,1H64.6z"/>
</g>
<g>
	<path class="st1" d="M70.1-262.9h10l30.1,63.6H100l-4.1-9.1h-19c-2.8,0-5.4,0.2-7.6,0.6c-2.2,0.4-4.1,0.9-5.7,1.5
		c-1.6,0.6-2.8,1.3-3.8,2c-1,0.7-1.6,1.4-1.9,2.1l-1.6,2.9h-9.9l27-55.9L70.1-262.9z M91.8-217.7l-13.7-26.4l-13.8,29.9
		c1.1-0.9,3-1.8,5.5-2.5c2.6-0.7,6-1,10.4-1H91.8z"/>
</g>
<g>
	<path class="st1" d="M478.6,76.1l21.4,28L386.6,323.3l-21.7-28.5l16.7-30.9l-40.4-53c-6.1-7.9-12-14.6-17.8-19.9
		c-5.8-5.3-11.2-9.5-16.2-12.6c-5-3.1-9.6-5.1-13.6-6.2c-4-1.1-7.4-1.4-9.9-0.9L272,173l-21-27.6l213.4-43.4L478.6,76.1z
		 M398.6,232.8l44.6-94.2l-112.8,25.1c5,1.1,11.2,4.5,18.7,10.2c7.4,5.7,15.7,14.6,25,26.7L398.6,232.8z"/>
</g>
<g>
	<path class="st0" d="M160.6,392l-21.4-28l113.4-219.1l21.7,28.5l-16.7,30.9l40.4,53c6.1,7.9,12,14.6,17.8,19.9
		c5.8,5.3,11.2,9.5,16.2,12.6c5,3.1,9.6,5.1,13.6,6.2c4,1.1,7.4,1.4,9.9,0.9l11.6-1.8l21,27.6L174.8,366L160.6,392z M240.7,235.3
		l-44.6,94.2l112.8-25.1c-5-1.1-11.2-4.5-18.7-10.2c-7.4-5.7-15.7-14.6-25-26.7L240.7,235.3z"/>
</g>
</svg>
